SplineFontDB: 3.0
FontName: TwentyCharacters
FullName: Twenty Characters for Amino Acids
FamilyName: TwentyCharacters
Weight: Book
Copyright: Created by Jon Stahlhacke, Matt Oates, Ben Smithers, Chris Musselle, Original Glyphs by Kristian Rother. Made with FontForge 2.0 (http://fontforge.sf.net)
UComments: "2013-11-11: Created." 
Version: 001.000
ItalicAngle: 0
UnderlinePosition: -100
UnderlineWidth: 50
Ascent: 800
Descent: 200
LayerCount: 2
Layer: 0 0 "Back"  1
Layer: 1 0 "Fore"  0
NeedsXUIDChange: 1
XUID: [1021 952 1641378874 13076460]
OS2Version: 0
OS2_WeightWidthSlopeOnly: 0
OS2_UseTypoMetrics: 1
CreationTime: 1384195687
ModificationTime: 1384263085
OS2TypoAscent: 0
OS2TypoAOffset: 1
OS2TypoDescent: 0
OS2TypoDOffset: 1
OS2TypoLinegap: 0
OS2WinAscent: 0
OS2WinAOffset: 1
OS2WinDescent: 0
OS2WinDOffset: 1
HheadAscent: 0
HheadAOffset: 1
HheadDescent: 0
HheadDOffset: 1
OS2Vendor: 'PfEd'
MarkAttachClasses: 1
DEI: 91125
Encoding: ISO8859-1
UnicodeInterp: none
NameList: Adobe Glyph List
DisplaySize: -48
AntiAlias: 1
FitToEm: 1
WinInfo: 0 32 10
BeginPrivate: 0
EndPrivate
BeginChars: 256 52

StartChar: A
Encoding: 65 65 0
Width: 1000
VWidth: 0
Flags: H
LayerCount: 2
Fore
SplineSet
453.528 780 m 0
 461.79 780 491.716 758.67 520.184 732.668 c 0
 567.827 689.152 571.014 680.457 557.963 622.588 c 0
 550.164 588.011 546.91 554.406 550.798 548.116 c 0
 554.685 541.826 619.16 540.619 694.097 545.294 c 0
 806.901 552.331 834.203 549.215 852.594 527.056 c 0
 888.659 483.6 845.969 445.939 772.911 456.709 c 0
 740.735 461.452 676.605 470.36 630.48 476.467 c 2
 546.672 487.54 l 1
 536.033 399.172 l 2
 530.207 350.648 525.473 264.661 525.395 208.107 c 0
 525.263 113.17 514.709 88.3037 486.747 116.266 c 0
 480.715 122.298 475.892 208.3 475.892 307.331 c 2
 475.892 487.54 l 1
 317.395 481.461 l 2
 178.3 476.252 156.505 479.24 140.441 505.344 c 0
 115.748 545.472 170.543 588.442 229.026 574.822 c 0
 251.648 569.554 317.492 560.718 375.365 555.064 c 2
 480.668 544.643 l 1
 469.812 588.283 l 2
 447.72 676.308 438.881 780 453.528 780 c 0
EndSplineSet
EndChar

StartChar: B
Encoding: 66 66 1
Width: 1000
VWidth: 0
Flags: H
LayerCount: 2
Fore
SplineSet
429.619 777.788 m 0
 440.266 778.223 468.833 762.702 498.605 739.994 c 0
 554.855 697.09 559.513 687.314 549.149 632.075 c 2
 537.766 571.285 l 1
 674.6 582.896 l 2
 781.015 591.771 819.221 588.644 845.358 569.235 c 0
 872.479 549.098 875.143 538.149 859.474 512.999 c 0
 837.972 478.485 807.304 477.071 654.792 503.437 c 0
 597.859 513.279 545.338 517.762 538.221 513.455 c 0
 531.104 509.147 525.243 452.907 525.243 388.232 c 1
 530.592 273.82 441.321 313.222 452.614 361.594 c 1
 447.605 516.414 l 1
 283.678 516.414 l 2
 126.749 516.414 119.573 518.107 114.285 555.348 c 0
 106.391 610.945 143.561 618.491 302.119 593.825 c 0
 378.125 582.001 444.709 576.813 450.109 582.213 c 0
 455.51 587.613 450.075 631.141 437.815 678.977 c 0
 425.555 726.812 420.332 770.778 426.203 776.65 c 0
 426.938 777.384 428.098 777.723 429.619 777.788 c 0
489.384 -102.106 m 0
 501.084 -149.361 496.01 -130.322 480.209 -149.361 c 0
 468.315 -163.691 442.939 -163.4 434.263 -149.361 c 0
 421.521 -128.745 420.543 -116.418 442.778 -105.091 c 1
 455.277 -104.863 486.889 -92.0303 489.384 -102.106 c 0
454.568 269.644 m 0
 464.761 275.709 475.286 276.234 484.313 271.128 c 0
 496.37 264.308 506.593 251.29 528.104 215.367 c 0
 548.846 180.729 567.226 154.266 579.425 141.479 c 0
 587.113 133.418 590.351 128.432 592.103 121.95 c 0
 595.529 109.266 590.171 97.9609 576.388 88.8008 c 0
 570.239 84.7148 555.432 79.5078 544.456 77.5723 c 0
 514.515 72.292 474.978 55.7295 464.084 43.9033 c 0
 459.461 38.8838 458.352 32.166 460.287 20.9062 c 0
 474.625 -53.1826 453.437 -180.334 413.873 21.1191 c 0
 408.752 43.0186 406.078 62.459 407.111 70.2725 c 0
 407.549 73.5723 408.015 74.3428 410.913 76.5518 c 0
 412.989 78.1338 418.376 80.8086 425.416 83.7539 c 0
 440.528 90.0742 459.25 95.3174 498.848 104.319 c 0
 516.051 108.229 530.47 111.546 530.89 111.689 c 0
 531.859 112.019 516.958 155.967 508.309 178.288 c 0
 497.283 206.741 489.518 219.182 479.318 224.729 c 0
 470.804 229.359 463.366 229.084 443.81 223.417 c 0
 422.511 217.245 414.594 217.585 413.998 224.696 c 0
 413.78 227.292 417.395 234.54 421.422 239.586 c 0
 429.42 249.604 445.695 264.362 454.568 269.644 c 0
EndSplineSet
EndChar

StartChar: C
Encoding: 67 67 2
Width: 1000
VWidth: 0
Flags: H
LayerCount: 2
Fore
SplineSet
550.155 780 m 0
 555.8 780 580.935 764.655 606.219 745.961 c 0
 648.316 714.838 651.92 705.638 647.467 636.035 c 2
 642.461 559.948 l 1
 772.209 565.354 l 2
 877.083 569.659 905.674 565.981 921.98 546.333 c 0
 954.927 506.635 915.345 471.976 848.296 481.859 c 0
 818.624 486.233 759.482 494.448 716.945 500.08 c 2
 639.657 510.292 l 1
 629.847 428.999 l 2
 624.473 384.249 619.907 304.952 619.835 252.797 c 0
 619.729 178.681 614.797 157.889 597.009 157.889 c 0
 578.086 157.889 574.183 187.614 574.183 334.09 c 2
 574.183 510.292 l 1
 428.016 504.686 l 2
 299.742 499.882 279.843 502.638 265.029 526.711 c 0
 242.257 563.717 292.789 603.345 346.723 590.783 c 0
 367.585 585.925 428.307 577.776 481.677 572.562 c 2
 578.788 563.152 l 1
 568.576 603.198 l 2
 550.515 675.162 539.643 780 550.155 780 c 0
216.374 698.507 m 0
 283.329 698.258 306.54 692.65 312.283 677.684 c 0
 324.994 644.559 286.717 628.733 217.375 638.238 c 0
 138.863 648.999 115.66 623.557 122.065 534.52 c 2
 126.671 469.045 l 1
 210.166 461.436 l 1
 293.662 453.827 l 1
 288.056 279.228 l 2
 285.008 183.263 275.637 96.2373 267.231 85.8066 c 0
 248.473 62.5264 221.638 61.5205 199.955 83.2031 c 0
 190.986 92.1729 157.856 108.255 126.471 119.045 c 2
 69.4053 138.667 l 1
 154.903 149.479 l 1
 240.401 160.092 l 1
 240.401 271.019 l 2
 240.401 400.693 226.975 418.754 134.68 412.58 c 2
 71.0078 408.176 l 1
 68.6045 552.34 l 1
 66.2021 696.505 l 1
 184.938 698.307 l 2
 196.368 698.475 206.809 698.545 216.374 698.507 c 0
EndSplineSet
EndChar

StartChar: D
Encoding: 68 68 3
Width: 1000
VWidth: 0
Flags: H
LayerCount: 2
Fore
SplineSet
447.401 779.992 m 0
 456.496 780.363 480.901 767.104 506.335 747.705 c 0
 554.389 711.053 558.367 702.702 549.514 655.512 c 2
 539.789 603.58 l 1
 656.685 613.5 l 2
 747.592 621.081 780.23 618.409 802.56 601.829 c 0
 825.729 584.626 828.004 575.273 814.619 553.788 c 0
 796.25 524.303 770.051 523.095 639.763 545.619 c 0
 591.126 554.026 546.258 557.856 540.178 554.177 c 0
 534.099 550.497 529.092 502.452 529.092 447.201 c 0
 529.092 348.18 529.817 346.499 571.882 338.086 c 0
 595.353 333.393 637.091 333.224 664.659 337.697 c 0
 727.694 347.927 760.795 316.653 736.041 270.4 c 0
 727.153 253.794 711.666 198.651 701.42 147.864 c 0
 681.353 48.3994 660.49 33.2949 591.721 67.9248 c 0
 546.218 90.8379 550.206 107.214 601.252 107.214 c 0
 651.074 107.214 661.741 127.323 661.741 220.997 c 2
 661.741 288.1 l 1
 583.163 279.931 l 2
 539.914 275.467 497.151 276.446 488.052 282.07 c 0
 478.378 288.049 469.563 347.169 467.046 424.444 c 2
 462.767 556.705 l 1
 322.727 556.705 l 2
 188.665 556.705 182.535 558.151 178.018 589.965 c 0
 171.273 637.462 203.026 643.907 338.48 622.836 c 0
 403.411 612.735 460.293 608.303 464.906 612.916 c 0
 469.52 617.529 464.877 654.714 454.403 695.579 c 0
 443.93 736.444 439.468 774.004 444.483 779.02 c 0
 445.11 779.646 446.102 779.937 447.401 779.992 c 0
345.872 217.885 m 0
 362.547 218.004 380.836 217.861 400.915 217.496 c 0
 553.374 214.719 602.464 201.404 581.996 168.287 c 0
 568.058 145.734 238.746 150.322 219.641 173.344 c 0
 194.259 203.928 229.149 217.053 345.872 217.885 c 0
EndSplineSet
EndChar

StartChar: E
Encoding: 69 69 4
Width: 1000
VWidth: 0
Flags: H
LayerCount: 2
Fore
SplineSet
451.26 779.952 m 0
 463.196 780.83 483.735 769.706 512.069 746.525 c 0
 544.773 719.769 551.612 703.947 547.763 664.752 c 2
 543.041 616.217 l 1
 665.417 621.316 l 2
 764.332 625.376 791.299 621.905 806.679 603.375 c 0
 822.488 584.326 822.359 576.601 806.49 557.484 c 0
 791.994 540.019 772.679 536.539 726.039 543.132 c 0
 515.343 572.914 535.865 574.686 535.865 527.835 c 0
 535.865 487.008 537.955 485.604 603.852 486.476 c 0
 662.585 487.253 671.839 483.634 671.839 458.903 c 0
 671.839 433.624 662.986 430.483 595.92 432.275 c 0
 521.85 434.255 520.074 433.272 524.346 396.394 c 0
 528.546 360.128 532.458 358.689 618.394 357.868 c 0
 733.229 356.769 744.969 344.903 716.03 259.665 c 0
 703.592 223.03 693.367 176.849 693.367 156.93 c 0
 693.367 111.504 669.218 64.9043 646.344 66.2812 c 0
 636.782 66.8564 610.228 79.2725 587.422 93.8535 c 2
 546.063 120.481 l 1
 594.598 125.014 l 1
 643.322 129.735 l 1
 643.322 215.474 l 1
 643.322 301.401 l 1
 557.395 301.401 l 2
 474.591 301.401 471.559 302.781 474.3 337.283 c 0
 481.261 424.907 470.069 437.375 384.406 437.375 c 0
 310.221 437.375 305.35 439.407 309.621 469.479 c 0
 313.229 494.885 323.148 501.543 357.022 501.018 c 0
 380.635 500.651 414.477 495.565 432.186 489.498 c 0
 461.137 479.578 464.29 482.968 464.29 523.869 c 2
 464.29 569.382 l 1
 333.605 564.094 l 2
 219.521 559.582 200.776 562.284 186.867 584.868 c 0
 165.194 620.057 213.326 657.463 264.107 644.923 c 0
 283.784 640.063 337.729 632.419 384.028 627.926 c 2
 468.256 619.616 l 1
 459.947 660.976 l 2
 455.445 683.641 447.524 719.781 442.194 741.426 c 0
 436.084 766.242 439.323 779.073 451.26 779.952 c 0
273.103 247.768 m 0
 281.341 247.621 290.399 246.496 299.92 244.368 c 0
 323.531 239.091 394.457 234.216 457.422 233.604 c 0
 561.993 232.588 571.866 230.097 571.866 203.954 c 0
 571.866 171.387 568.382 170.868 367.151 178.459 c 0
 262.93 182.391 232.425 188.321 225.701 205.843 c 0
 215.913 231.35 237.407 248.401 273.103 247.768 c 0
EndSplineSet
EndChar

StartChar: F
Encoding: 70 70 5
Width: 1000
VWidth: 0
Flags: H
LayerCount: 2
Fore
SplineSet
455.111 779.991 m 4
 463.662 780.312 479.459 771.491 505.673 754.816 c 4
 567.656 715.389 572.802 703.489 561.945 624.288 c 6
 552.426 553.629 l 5
 676.185 561.456 l 6
 778.011 567.991 806.107 564.503 834.427 541.57 c 4
 864.652 517.096 866.14 510.291 846.274 486.354 c 4
 829.395 466.017 809.023 461.463 766.519 468.584 c 4
 735.17 473.837 671.7 482.627 625.412 488.047 c 6
 541.214 497.99 l 5
 541.214 430.716 l 5
 541.214 363.653 l 5
 654.395 368.096 l 6
 774.52 373 809.998 354.421 781.539 301.245 c 4
 773.843 286.866 762.46 235.877 756.363 188.063 c 4
 738.75 49.9082 715.72 23.8613 646.779 63.8818 c 0
 626.769 75.4971 562.669 78.4707 462.092 72.3438 c 0
 377.302 67.1777 299.971 67.9102 290.311 74.0361 c 0
 280.65 80.1621 272.043 119.456 271.271 161.408 c 4
 270.498 203.36 262.01 267.468 252.23 303.783 c 4
 229.628 387.725 246.74 408.601 318.024 383.751 c 4
 346.458 373.839 393.835 365.769 423.378 365.769 c 4
 475.507 365.769 477.112 367.648 477.112 430.928 c 6
 477.112 496.086 l 5
 327.967 492.066 l 6
 174.21 487.968 140.53 495.616 140.53 534.377 c 4
 140.53 576.256 201.78 594.727 277.617 575.631 c 4
 315.853 566.003 377.161 558.071 413.858 558.071 c 6
 480.497 558.071 l 5
 471.824 618.152 l 6
 466.988 651.216 458.058 701.834 452.149 730.488 c 4
 445.214 764.125 444.117 779.581 455.111 779.991 c 4
332.833 317.535 m 5
 332.833 222.547 l 6
 332.833 136.703 336.439 126.851 369.009 120.578 c 4
 426.212 109.561 625.969 108.685 665.607 119.309 c 4
 697.207 127.777 701.571 139.471 701.571 213.238 c 6
 701.571 297.438 l 5
 641.49 307.38 l 6
 608.428 312.845 525.345 317.438 457.015 317.535 c 6
 332.833 317.535 l 5
EndSplineSet
EndChar

StartChar: G
Encoding: 71 71 6
Width: 1000
VWidth: 0
Flags: H
LayerCount: 2
Fore
SplineSet
207.854 619.015 m 4
 173.38 619.093 155.938 612.969 143.528 600.56 c 4
 129.686 586.717 129.551 573.271 142.798 552.294 c 4
 159.106 526.468 189.391 523.896 401.976 528.237 c 4
 534.225 530.938 665.153 525.978 692.542 517.231 c 4
 784.719 487.798 868.022 500.711 879.429 536.587 c 4
 882.973 547.736 879.484 560.967 867.341 575.6 c 4
 848.521 598.277 819.247 600.594 677 591 c 4
 569.972 583.781 460.232 587.16 375.131 600.259 c 4
 293.976 612.75 242.336 618.938 207.854 619.015 c 4
207.85 618.015 m 4
 242.219 617.938 293.839 611.76 374.979 599.271 c 4
 460.179 586.156 569.972 582.779 677.066 590.002 c 4
 819.489 599.607 848.206 597.09 866.571 574.961 c 4
 878.6 560.467 881.88 547.599 878.476 536.89 c 4
 867.431 502.15 785.11 488.723 692.847 518.185 c 4
 665.076 527.052 534.282 531.939 401.956 529.237 c 4
 189.101 524.891 159.494 527.727 143.644 552.827 c 4
 130.52 573.609 130.754 586.371 144.235 599.853 c 4
 156.388 612.004 173.471 618.093 207.85 618.015 c 4
207.852 618.515 m 4
 242.277 618.438 293.907 612.255 375.055 599.765 c 4
 460.205 586.658 569.972 583.279 677.033 590.501 c 4
 819.368 600.101 848.363 597.684 866.956 575.28 c 4
 918.091 513.666 813.459 479.146 692.694 517.708 c 4
 665.115 526.515 534.253 531.439 401.966 528.737 c 4
 189.246 524.393 159.3 527.098 143.221 552.561 c 4
 130.035 573.44 130.22 586.544 143.882 600.206 c 4
 156.162 612.486 173.426 618.593 207.852 618.515 c 4
EndSplineSet
EndChar

StartChar: H
Encoding: 72 72 7
Width: 1000
VWidth: 0
Flags: H
LayerCount: 2
Fore
SplineSet
555.653 780 m 1
 612.04 746.746 l 2
 661.932 717.31 668.221 706.334 668.221 650.496 c 2
 668.221 587.5 l 1
 791.527 598.24 l 2
 894.26 607.202 918.98 604.629 940.24 583.369 c 0
 1003.35 520.257 947.947 497.034 797.104 523.265 c 0
 731.719 534.635 675.168 540.952 671.525 537.31 c 0
 647.667 513.451 824.171 344.368 911.323 307.632 c 2
 957.796 288.011 l 1
 917.107 282.434 l 2
 881.43 277.509 874.105 265.73 857.415 187.63 c 0
 810.869 -30.1816 800.674 -44.8516 726.673 -1.77246 c 0
 710.833 7.44922 630.022 12.1768 538.717 9.38086 c 2
 378.851 4.63086 l 1
 374.307 67.2139 l 2
 371.905 101.646 362.696 167.067 353.652 212.621 c 0
 339.102 285.922 333.447 294.317 305.114 285.325 c 0
 281.578 277.854 276.411 280.339 285.493 295.033 c 0
 294.392 309.432 290.1 312.088 270.415 304.534 c 0
 255.387 298.767 236.804 294.207 228.899 294.207 c 0
 220.996 294.207 214.441 226.542 214.441 144.049 c 0
 214.441 31.0381 209.561 -4.17383 194.819 0.706055 c 0
 181.808 5.01465 173.684 50.1309 170.654 135.58 c 2
 166.11 264.051 l 1
 119.225 230.591 l 2
 83.3691 205.06 67.3682 201.362 51.0645 214.894 c 0
 13.3525 246.191 41.1338 292.595 108.483 310.73 c 2
 171.273 327.667 l 1
 160.326 452.833 l 1
 149.38 577.999 l 1
 191.102 550.941 l 2
 230.491 525.133 231.972 519.029 222.084 433.831 c 2
 211.756 343.984 l 1
 264.012 346.463 l 2
 299.108 348.113 314.875 342.378 312.137 328.906 c 0
 305.475 296.123 397.673 351.172 482.949 430.939 c 0
 596.242 536.911 588.18 550.152 418.095 536.69 c 0
 296.297 527.05 275.936 529.021 267.523 550.941 c 0
 262.179 564.871 267.248 587.569 278.677 601.339 c 0
 299.683 626.649 345.977 625.785 517.442 597.001 c 2
 577.96 586.881 l 1
 566.807 683.544 l 1
 555.653 780 l 1
638.891 513.764 m 0
 632.921 513.067 617.38 497.55 601.507 475.76 c 0
 583.365 450.856 526.339 403.775 474.895 371.248 c 2
 381.33 312.176 l 1
 434.825 303.295 l 2
 554.693 283.561 586.636 281.805 683.505 288.63 c 0
 739.17 292.553 787.354 298.502 790.701 301.849 c 0
 795.317 306.465 702.613 437.034 640.75 513.145 c 0
 640.314 513.68 639.744 513.863 638.891 513.764 c 0
507.322 245.049 m 0
 502.818 245.056 498.577 244.975 494.517 244.843 c 0
 423.052 242.511 417.889 218.077 417.889 146.527 c 0
 417.889 93.7266 425.282 58.8838 437.51 53.7881 c 0
 448.27 49.3047 530.951 47.0107 621.335 48.625 c 2
 785.744 51.5166 l 1
 785.744 137.646 l 1
 785.744 223.774 l 1
 638.891 236.58 l 2
 581.516 241.624 538.846 244.995 507.322 245.049 c 0
EndSplineSet
EndChar

StartChar: I
Encoding: 73 73 8
Width: 1000
VWidth: 0
Flags: H
LayerCount: 2
Fore
SplineSet
458.661 779.97 m 0
 467.982 779.237 485.769 765.221 514.43 743.359 c 0
 559.967 708.627 564.04 699.989 555.593 654.963 c 2
 546.299 605.074 l 1
 657.837 613.61 l 2
 778.018 622.699 821.541 610.188 821.541 566.757 c 0
 821.541 530.275 777.006 518.146 710.571 536.596 c 0
 680.653 544.904 628.648 551.729 595.049 551.771 c 2
 533.969 551.961 l 1
 533.969 450.096 l 1
 533.969 348.231 l 1
 665.045 352.974 l 2
 776.701 357.075 798.494 354.145 812.057 333.057 c 0
 823.906 314.629 823.484 303.891 810.349 290.755 c 0
 796.4 276.807 766.991 276.727 669.978 290.755 c 0
 602.467 300.517 540.99 304.741 533.399 300.05 c 0
 525.809 295.357 519.552 245.73 519.552 189.84 c 2
 519.552 88.165 l 1
 589.548 97.46 l 2
 642.24 104.449 663.756 101.651 676.996 85.6982 c 0
 703.671 53.5576 681.941 34.04 622.934 37.3271 c 0
 593.754 38.9531 513.419 42.4697 444.244 45.1045 c 0
 333.078 49.3389 318.479 53.0381 318.479 76.5938 c 0
 318.479 111.14 352.232 123.598 398.528 105.996 c 0
 471.151 78.3848 490.892 86.8457 490.719 145.831 c 0
 490.633 175.477 486.31 224.935 481.234 255.662 c 2
 472.129 311.432 l 1
 339.725 302.137 l 2
 231.021 294.495 203.901 296.833 189.109 314.656 c 0
 174.611 332.125 174.843 340.862 190.247 359.424 c 0
 209.313 382.396 284.691 381.134 429.828 355.63 c 2
 476.492 347.473 l 1
 476.492 450.476 l 1
 476.492 553.288 l 1
 348.829 550.822 l 2
 209.888 548.011 189.109 553.791 189.109 595.59 c 0
 189.109 633.72 239.732 643.462 340.673 624.802 c 0
 470.854 600.736 481.259 602.65 471.56 648.893 c 0
 451.269 745.634 443.125 781.191 458.661 779.97 c 0
EndSplineSet
EndChar

StartChar: J
Encoding: 74 74 9
Width: 1000
VWidth: 0
Flags: H
LayerCount: 2
Fore
SplineSet
452.679 779.992 m 0
 460.231 780.273 474.164 772.49 497.287 757.782 c 0
 551.257 723.451 557.714 710.755 547.868 656.993 c 2
 539.096 609.771 l 1
 657.615 618.73 l 2
 783.255 628.35 817.637 618.536 809.172 575.429 c 0
 803.676 547.437 776.858 545.062 606.475 557.697 c 2
 535.736 563.11 l 1
 531.63 461.948 l 1
 527.523 360.973 l 1
 602.368 363.025 l 2
 668.442 364.782 677.214 361.683 677.214 336.709 c 0
 677.214 311.383 668.648 308.67 595.836 311.138 c 2
 527.674 313.938 l 1
 602.564 288.721 512.839 245.361 488.329 282.396 c 1
 479.728 325.402 422.521 317.82 347.593 317.82 c 0
 275.827 317.82 195.886 315.487 200.098 345.145 c 0
 204.943 379.268 267.272 391.925 342.959 372.097 c 1
 472.09 357.426 l 1
 472.09 465.494 l 1
 472.09 573.376 l 1
 334.158 568.149 l 2
 200.015 563.107 196.155 563.985 191.747 595.026 c 0
 186.077 634.959 233.97 655.741 294.963 639.821 c 0
 318.47 633.686 366.347 626.614 401.351 624.144 c 0
 471.473 619.193 472.99 622.796 449.879 736.317 c 0
 443.837 765.996 442.968 779.631 452.679 779.992 c 0
450.467 -159.549 m 0
 440.516 -157.933 434.605 -152.302 428.225 -138.356 c 0
 422.208 -125.208 425.981 -114.586 439.244 -107.342 c 0
 442.904 -105.342 475.164 -98.6152 481.092 -98.6152 c 0
 486.814 -98.6152 488.525 -100.109 490.257 -106.62 c 0
 493.312 -118.103 495.926 -132.754 495.338 -135.095 c 0
 494.996 -136.459 492.661 -138.951 490.029 -140.763 c 0
 487.445 -142.54 483.027 -146.373 480.212 -149.28 c 0
 472.022 -157.735 461.556 -161.349 450.467 -159.549 c 0
446.797 -85.0059 m 0
 437.945 -77.5576 426.705 -42.0293 414.402 17.3848 c 0
 408.24 47.1475 407.427 52.4727 407.329 63.6865 c 0
 407.229 75.1006 407.09 74.9043 419.582 80.9062 c 0
 434.52 88.084 457.69 94.6123 516.994 108.352 c 0
 524.557 110.104 530.744 111.926 530.744 112.402 c 0
 530.744 114.097 517.811 152.17 511.355 169.481 c 0
 497.4 206.903 488.855 220.68 476.364 225.899 c 0
 470.319 228.425 461.418 227.729 444.244 223.385 c 0
 426.079 218.791 418.089 218.241 415.241 221.388 c 0
 413.679 223.114 413.586 223.914 414.565 227.186 c 0
 416.379 233.236 421.492 240.214 431.204 249.894 c 0
 441.738 260.392 450.04 266.974 457.744 270.935 c 0
 462.304 273.279 464.526 273.771 470.744 273.806 c 0
 480.222 273.858 486.182 270.984 495.111 262.055 c 0
 503.036 254.13 510.652 243.148 530.25 211.385 c 0
 553.336 173.969 564.965 157.488 582.729 137.013 c 0
 602.025 114.771 592.713 92.2979 559.744 81.5449 c 0
 556.169 80.3789 546.953 78.0186 539.265 76.3008 c 0
 502.884 68.1699 467.492 51.6533 461.569 40.042 c 0
 459.019 35.0439 458.882 26.9219 461.134 14.2158 c 0
 467.527 -21.8633 464.314 -75.2324 455.154 -85.1172 c 0
 452.225 -88.2783 450.661 -88.2578 446.797 -85.0059 c 0
EndSplineSet
EndChar

StartChar: K
Encoding: 75 75 10
Width: 1000
VWidth: 0
Flags: H
LayerCount: 2
Fore
SplineSet
554 768 m 4
 554.368 768.087 554.726 768.005 555.139 767.81 c 4
 642.736 726.516 646.185 722.601 646.185 666.711 c 6
 646.185 610.944 l 5
 762.458 613.411 l 6
 853.135 615.347 883.73 610.688 902.062 592.356 c 4
 923.785 570.633 923.753 567.197 901.113 544.557 c 4
 879.433 522.876 866.946 522.036 792.807 537.349 c 4
 656.659 565.47 631.958 561.823 631.958 513.64 c 4
 631.958 473.259 632.936 472.712 701.57 479.308 c 4
 755.412 484.48 773.159 480.847 779.719 463.754 c 4
 794.174 426.083 753.431 406.632 682.413 417.282 c 4
 619.229 426.757 617.543 425.974 617.543 388.261 c 4
 617.543 350.859 619.613 349.843 682.793 356.964 c 4
 730.493 362.341 754.196 358.207 770.614 341.79 c 4
 806.455 305.948 757.398 278.251 678.999 290.007 c 4
 619.585 298.917 617.543 297.83 617.543 260.228 c 4
 617.543 223.587 621.022 221.527 678.619 224.567 c 4
 767.424 229.256 775.546 227.001 775.546 196.306 c 4
 775.546 160.04 731.846 147.104 668.377 164.629 c 4
 618.22 178.478 617.543 177.993 617.543 134.47 c 6
 617.543 90.4639 l 5
 740.455 99.9482 l 6
 867.181 109.689 919.322 97.6553 919.322 58.7881 c 4
 919.322 38.5889 874.97 6.56543 851.986 10.2295 c 4
 845.538 11.2588 801.543 21.2881 754.111 32.4229 c 4
 691.496 47.1221 615.488 50.459 476.99 44.5615 c 4
 313.536 37.6025 285.102 39.6406 277.826 58.5986 c 4
 273.157 70.7656 277.958 91.0967 288.448 103.742 c 4
 307.637 126.862 353.874 125.979 520.427 99.5693 c 4
 573.215 91.1982 574.485 91.9219 574.485 136.746 c 6
 574.485 182.459 l 5
 491.785 178.097 l 6
 417.254 174.124 409.085 176.451 409.085 202.375 c 4
 409.085 228.264 417.426 230.845 492.733 227.413 c 6
 576.382 223.619 l 5
 571.83 263.263 l 6
 567.457 301.3 563.84 303.095 488.182 303.095 c 4
 418.712 303.095 409.085 306.476 409.085 331.736 c 4
 409.085 357.581 417.481 360.123 491.785 356.774 c 4
 571.427 353.186 574.485 354.457 574.485 389.21 c 4
 574.485 423.293 570.058 425.249 496.147 425.249 c 4
 413.714 425.249 395.868 435.823 411.171 475.703 c 4
 420.205 499.244 441.314 499.68 550.206 478.738 c 4
 559.549 476.941 569.275 493.816 571.83 516.105 c 6
 576.572 556.507 l 5
 441.71 553.093 l 6
 302.833 549.391 272.516 556.047 272.516 590.839 c 4
 272.516 628.387 327.433 644.948 395.428 627.826 c 4
 429.71 619.194 481.532 612.083 510.563 612.083 c 6
 563.294 612.083 l 5
 553.241 692.697 l 6
 548.045 734.287 548.479 766.696 554 768 c 4
188.867 580.597 m 4
 195.896 580.877 206.235 572.337 220.733 556.317 c 4
 240.419 534.565 243.345 514.438 235.339 454.08 c 6
 225.285 378.967 l 5
 269.102 388.641 l 6
 333.772 402.845 342.403 371.487 280.861 345.773 c 6
 229.458 324.339 l 5
 229.458 195.927 l 6
 229.458 75.2959 214.593 23.1201 194.937 74.3418 c 4
 190.156 86.8008 186.401 141.806 186.401 196.495 c 4
 186.401 296.373 176.325 314.232 143.154 274.264 c 4
 133.313 262.406 112.809 252.83 97.4414 252.83 c 4
 75.4404 252.83 70.3398 261.16 73.9209 292.283 c 4
 77.6729 324.886 88.2822 334.234 134.239 345.583 c 6
 190.005 359.43 l 5
 180.711 471.341 l 6
 174.391 547.128 175.449 580.061 188.867 580.597 c 4
EndSplineSet
EndChar

StartChar: L
Encoding: 76 76 11
Width: 1000
VWidth: 0
Flags: H
LayerCount: 2
Fore
SplineSet
452.679 779.992 m 0
 460.231 780.273 474.164 772.49 497.287 757.782 c 0
 551.257 723.451 557.714 710.755 547.868 656.993 c 2
 539.096 609.771 l 1
 657.615 618.73 l 2
 783.255 628.35 817.637 618.536 809.172 575.429 c 0
 803.676 547.437 776.858 545.062 606.475 557.697 c 2
 535.736 563.11 l 1
 531.63 461.948 l 1
 527.523 360.973 l 1
 602.368 363.025 l 2
 668.442 364.782 677.214 361.683 677.214 336.709 c 0
 677.214 311.383 668.648 308.67 595.836 311.139 c 2
 514.458 313.938 l 1
 514.458 214.829 l 1
 514.458 115.906 l 1
 648.47 119.826 l 2
 788.593 124.001 818.293 114.171 809.172 66.0723 c 0
 803.342 35.3203 742.683 27.0469 677.214 48.1543 c 0
 653.878 55.6777 542.133 60.4629 428.975 58.793 c 0
 315.816 57.123 215.662 60.4766 206.306 66.2588 c 0
 196.95 72.041 189.321 89.0107 189.321 103.961 c 0
 189.321 139.853 241.63 152.261 311.388 132.892 c 0
 341.464 124.54 393.115 117.628 426.175 117.586 c 2
 486.274 117.586 l 1
 486.274 172.273 l 2
 486.274 202.416 482.178 247.074 477.315 271.383 c 0
 468.715 314.39 466.574 315.617 391.646 315.617 c 0
 319.88 315.617 314.828 317.689 319.04 347.348 c 0
 323.887 381.47 357.58 387.52 433.268 367.691 c 2
 472.09 357.426 l 1
 472.09 465.494 l 1
 472.09 573.376 l 1
 334.158 568.149 l 2
 200.015 563.107 196.155 563.985 191.747 595.026 c 0
 186.077 634.959 233.97 655.741 294.963 639.821 c 0
 318.47 633.686 366.347 626.614 401.351 624.144 c 0
 471.473 619.193 472.99 622.796 449.879 736.317 c 0
 443.837 765.996 442.968 779.631 452.679 779.992 c 0
EndSplineSet
EndChar

StartChar: M
Encoding: 77 77 12
Width: 1000
VWidth: 0
Flags: H
LayerCount: 2
Fore
SplineSet
545.183 779.996 m 0
 556.103 779.789 576.589 771.313 598.069 757.666 c 0
 646.529 726.879 649.688 720.707 641.555 666.974 c 2
 632.74 609.189 l 1
 757.711 619.375 l 2
 860.989 627.755 886.712 625.336 905.992 606.056 c 0
 931.418 580.63 925.365 545.9 893.26 533.58 c 0
 882.105 529.3 822.045 536.179 759.866 548.858 c 0
 697.688 561.539 643.578 568.708 639.596 564.725 c 0
 635.613 560.742 628.393 510.048 623.534 452.095 c 2
 614.72 346.711 l 1
 694.639 350.041 l 2
 765.938 353.091 774.753 350.233 774.753 323.794 c 0
 774.753 297.803 765.133 294.253 696.988 294.804 c 0
 621.6 295.412 618.931 293.929 610.606 249.556 c 0
 605.879 224.359 604.055 177.446 606.688 145.151 c 2
 611.585 86.3877 l 1
 753.206 91.6768 l 2
 869.517 96.0049 898.175 92.6348 914.415 73.0684 c 0
 959.274 19.0156 859.696 -15.6914 767.31 21.748 c 0
 746.9 30.0186 633.388 35.4355 515.017 33.8926 c 0
 248.117 30.4131 262.725 28.7725 262.725 63.666 c 0
 262.725 108.136 310.338 126.117 384.562 109.894 c 0
 419.589 102.236 474.92 93.9375 507.573 91.2852 c 2
 566.925 86.3877 l 1
 571.43 193.926 l 1
 575.739 301.659 l 1
 486.026 301.659 l 2
 407.905 301.659 396.314 305.201 396.314 329.67 c 0
 396.314 368.156 435.363 379.982 496.408 359.836 c 0
 524.545 350.55 552.62 348.704 558.894 355.722 c 0
 565.154 362.726 566.924 413.871 563.008 469.527 c 2
 555.956 570.798 l 1
 412.964 566.097 l 2
 275.059 561.546 269.977 562.586 265.467 594.303 c 0
 258.982 639.901 308.796 649.604 441.758 628.974 c 0
 500.647 619.837 552.54 616.155 557.131 620.747 c 0
 561.722 625.338 557.443 659.499 547.533 696.552 c 0
 537.623 733.604 533.157 769.842 537.739 777.254 c 0
 538.885 779.107 541.542 780.065 545.183 779.996 c 0
77.2266 754.336 m 1
 185.939 754.336 l 2
 299.071 754.393 340.236 735.97 300.529 703.016 c 0
 287.279 692.02 261.374 688.694 234.518 694.593 c 0
 210.075 699.962 176.208 696.8 158.908 687.541 c 0
 132.695 673.513 128.32 659.36 132.073 601.158 c 2
 136.578 531.621 l 1
 218.26 524.178 l 1
 299.746 516.734 l 1
 294.457 370.413 l 2
 291.471 289.926 284.318 206.472 278.591 184.915 c 0
 266.992 141.26 221.314 126.289 191.425 156.316 c 0
 180.956 166.834 150.997 183.363 124.825 192.946 c 2
 77.2266 210.38 l 1
 133.836 211.359 l 2
 229.045 213.257 247.838 231.803 247.838 323.402 c 0
 247.838 367.482 241.22 420.871 233.146 442.104 c 0
 219.332 478.439 214.351 480.282 146.568 471.291 c 2
 74.4844 461.692 l 1
 75.8555 608.015 l 1
 77.2266 754.336 l 1
EndSplineSet
EndChar

StartChar: N
Encoding: 78 78 13
Width: 1000
VWidth: 0
Flags: H
LayerCount: 2
Fore
SplineSet
448.384 779.871 m 0
 459.333 781.264 479.227 771.371 508.782 750.326 c 0
 545.761 723.995 550.345 713.391 543.563 671.602 c 2
 535.896 623.544 l 1
 655.947 626.723 l 2
 752.707 629.39 780.501 625.398 799.746 606.153 c 0
 822.141 583.759 822.182 580.718 799.559 558.096 c 0
 778.186 536.722 766.062 536.08 692.973 551.177 c 0
 554.602 579.757 539.299 576.394 529.165 515.087 c 0
 524.335 485.862 520.281 433.098 520.189 398.028 c 2
 520.003 334.264 l 1
 628.272 334.264 l 2
 715.138 334.264 739.392 329.561 751.876 309.954 c 0
 782.479 261.893 713.521 236.797 617.24 260.962 c 0
 582.942 269.57 579.701 266.192 571.239 213.278 c 0
 560.097 143.597 577.892 106.995 629.021 94.1631 c 0
 657.559 87 672.533 90.8877 685.867 109.122 c 0
 706.408 137.214 710.904 134.961 724.948 89.3008 c 0
 734.816 57.2188 733.494 56.748 632.761 60.8779 c 2
 530.661 65.1787 l 1
 527.482 158.676 l 2
 522.698 298.366 489.752 328.752 471.385 210.474 c 0
 457.036 118.075 394.222 57.1611 315.057 59.0078 c 0
 272.194 60.0088 272.244 59.9746 329.269 85.374 c 0
 390.663 112.72 420.896 160.225 420.896 228.799 c 0
 420.896 270.099 419.906 270.499 342.545 270.499 c 0
 283.054 270.499 261.971 276.091 255.219 293.686 c 0
 241.978 328.192 271.089 363.217 309.447 358.947 c 0
 327.909 356.892 374.252 351.129 412.481 346.231 c 2
 482.043 337.442 l 1
 472.693 405.135 l 2
 467.586 442.399 463.344 495.035 463.344 522.006 c 2
 463.344 570.998 l 1
 333.943 565.949 l 2
 221.013 561.621 202.363 564.359 188.649 586.706 c 0
 167.48 621.196 214.762 658.278 265.13 646.731 c 0
 284.612 642.265 338.003 634.487 383.871 629.527 c 2
 467.271 620.552 l 1
 459.043 661.69 l 2
 454.561 684.3 446.556 720.293 441.278 741.725 c 0
 435.355 765.776 437.435 778.478 448.384 779.871 c 0
EndSplineSet
EndChar

StartChar: P
Encoding: 80 80 14
Width: 1000
VWidth: 0
Flags: H
LayerCount: 2
Fore
SplineSet
201.43 660.488 m 4
 220.303 661.185 241.312 658.248 262.925 651.115 c 4
 305.08 637.203 406.194 633.37 572 639 c 4
 818.755 647.377 874.218 638.298 874.218 590.307 c 4
 874.218 550.215 809.761 536.265 709.621 554.415 c 4
 578.997 578.092 562.398 567.328 562.398 460.001 c 6
 562.398 370.388 l 5
 663.214 379.531 l 6
 803.541 392.256 827.691 375.326 814.323 273.915 c 4
 808.477 229.564 802.85 142.672 801.75 80.7432 c 4
 799.084 -69.2666 772.375 -101.854 692.247 -52.9912 c 4
 669.626 -39.1973 567.465 -30.8926 397.803 -29.2168 c 4
 154.808 -26.8164 138.4 -24.6953 144.507 5.30273 c 4
 151.561 39.958 150.291 287.324 142.678 358.042 c 4
 138.598 395.947 144.513 401.095 189.999 399.648 c 4
 218.582 398.739 275.013 391.787 315.504 384.332 c 6
 389.115 370.845 l 5
 388.887 429.367 l 6
 388.749 461.55 383.74 506.417 377.686 529.04 c 4
 367.465 567.228 360.262 569.581 277.556 561.045 c 4
 183.295 551.316 129.419 568.757 129.419 609.28 c 4
 129.419 639.855 159.908 658.958 201.43 660.488 c 4
475.758 565.846 m 4
 445.312 565.846 441.238 554.242 441.238 470.517 c 4
 441.238 386.791 445.312 375.188 475.758 375.188 c 4
 506.203 375.188 510.506 386.791 510.506 470.517 c 4
 510.506 554.242 506.203 565.846 475.758 565.846 c 4
470.729 305.92 m 4
 440.769 305.92 425.27 290.779 409.005 245.797 c 4
 384.322 177.54 314.654 115.491 262.925 115.491 c 4
 234.691 115.491 238.981 122.797 285.557 154.354 c 4
 336.147 188.632 387.858 278.373 368.312 297.919 c 4
 364.438 301.794 332.697 300.174 297.673 294.49 c 4
 242.867 285.596 232.526 276.437 223.604 228.88 c 4
 217.903 198.489 215.917 147.055 219.032 114.349 c 4
 224.061 61.5635 231.511 53.6816 285.328 43.9375 c 4
 318.675 37.9004 431.536 33.9766 536.338 35.25 c 6
 726.996 37.5361 l 5
 742.998 120.521 l 6
 752.968 172.146 752.943 221.513 742.77 250.598 c 4
 728.613 291.066 715.425 298.007 646.526 302.491 c 4
 579.43 306.858 565.549 302.342 558.056 273.687 c 4
 553.159 254.964 557.554 231.21 567.886 220.879 c 4
 591.48 197.285 649.041 196.109 649.041 219.278 c 4
 649.041 247.338 679.066 239.219 691.104 207.849 c 4
 708.741 161.887 680.692 149.961 581.831 161.67 c 6
 489.474 172.643 l 5
 500.219 239.396 l 6
 510.002 300.577 507.467 305.92 470.729 305.92 c 4
EndSplineSet
EndChar

StartChar: Q
Encoding: 81 81 15
Width: 1000
VWidth: 0
Flags: H
LayerCount: 2
Fore
SplineSet
452.057 779.988 m 0
 460.966 779.664 475.248 772.768 499.381 758.529 c 0
 549.469 728.977 551.786 724.355 543.065 669.819 c 2
 533.868 612.34 l 1
 654 622.111 l 2
 784.477 632.818 835.558 616.27 817.434 569.039 c 0
 804.484 535.294 773.209 531.838 672.585 552.945 c 0
 542.251 580.284 534.635 578.967 534.635 528.804 c 0
 534.635 486.158 535.919 485.496 603.61 488.951 c 0
 664.066 492.037 672.586 488.738 672.586 463.277 c 0
 672.586 437.849 663.078 434.378 596.329 434.921 c 2
 520.073 435.495 l 1
 520.073 378.591 l 1
 520.073 321.686 l 1
 618.363 331.266 l 2
 693.921 338.711 723.13 336.104 745.393 319.578 c 0
 768.84 302.174 771.056 293.165 757.655 271.871 c 0
 744.377 250.771 725.22 246.239 659.748 249.262 c 0
 598.226 252.103 578.319 248.15 578.319 232.977 c 0
 578.319 221.924 574.427 193.587 569.697 169.94 c 0
 563.756 140.233 568.526 119.38 585.217 102.689 c 0
 616.263 71.6436 674.576 71.6689 691.937 102.689 c 0
 703.934 124.128 707.263 123.261 722.784 94.2598 c 0
 732.381 76.3281 738.072 59.8809 735.43 57.6641 c 0
 719.074 43.9473 535.435 36.6611 527.546 49.4258 c 0
 522.465 57.6455 522.545 77.7051 527.737 94.0684 c 0
 542.863 141.724 520.653 267.272 497.082 267.272 c 0
 484.915 267.272 476.581 252.586 476.581 230.677 c 0
 476.581 131.202 401.664 48.5439 313.723 50.959 c 2
 266.015 52.2998 l 1
 312.381 65.5195 l 2
 376.628 84.1084 418.526 142.293 418.526 212.667 c 2
 418.526 270.146 l 1
 348.594 260.375 l 2
 293.031 252.733 274.547 255.691 258.734 274.744 c 0
 244.071 292.412 242.744 305.219 254.136 323.027 c 0
 270.753 349.007 319.252 352.869 407.797 335.098 c 0
 469.52 322.71 486.606 341.611 470.641 405.223 c 0
 462.32 438.377 454.683 441.626 381.932 441.626 c 0
 324.021 441.626 302.418 446.998 302.418 461.553 c 0
 302.418 500.924 341.713 518.506 391.319 501.213 c 0
 457.278 478.22 462.02 480.2 462.02 530.145 c 2
 462.02 574.979 l 1
 320.62 569.997 l 1
 179.029 565.016 l 1
 179.029 601.228 l 2
 179.029 634.598 184.298 637.638 244.364 637.439 c 0
 280.297 637.323 344.033 632.089 385.955 625.943 c 0
 461.227 614.909 462.02 615.296 462.02 652.575 c 0
 462.02 673.338 455.1 703.374 446.5 719.443 c 0
 437.899 735.512 434.325 758.004 438.645 769.259 c 0
 441.435 776.529 445.127 780.24 452.057 779.988 c 0
EndSplineSet
EndChar

StartChar: R
Encoding: 82 82 16
Width: 1000
VWidth: 0
Flags: H
LayerCount: 2
Fore
SplineSet
548.671 780 m 0
 552.051 780 577.505 766.448 605.43 749.973 c 0
 653.61 721.546 655.881 717.179 647.54 665.02 c 2
 638.752 610.092 l 1
 755.015 619.796 l 2
 855.932 628.202 874.501 626.275 895.811 604.966 c 0
 919.304 581.473 919.176 579.396 891.966 557.362 c 0
 866.094 536.412 853.913 536.049 757.211 554.066 c 0
 698.741 564.961 648.995 571.927 646.625 569.446 c 0
 644.255 566.966 640.124 549.341 637.47 530.265 c 0
 632.95 497.772 636.198 495.794 688.187 499.14 c 0
 754.73 503.421 785.847 486.662 773.141 453.55 c 0
 765.619 433.951 751.342 430.721 694.777 436.156 c 0
 627.047 442.664 625.752 442.1 625.752 404.848 c 0
 625.752 367.983 627.825 366.929 698.439 368.779 c 0
 762.663 370.462 771.31 367.43 771.31 342.963 c 0
 771.31 318.579 762.017 315.134 694.961 315.134 c 0
 622.379 315.134 618.513 313.412 614.4 277.783 c 0
 610.112 240.624 610.762 240.246 690.749 242.996 c 0
 763.052 245.482 771.31 242.974 771.31 218.096 c 0
 771.31 196.405 759.799 188.731 718.396 183.309 c 2
 665.482 176.352 l 1
 711.438 132.043 l 2
 736.754 107.646 779.39 78.2305 806.097 66.6797 c 2
 854.615 45.625 l 1
 791.083 45.0752 l 2
 730.03 44.5537 725.548 47.3926 673.355 119.41 c 2
 619.161 194.294 l 1
 570.459 156.028 l 2
 498.977 99.8008 348.188 28.1318 348.188 50.3848 c 0
 348.188 54.6123 368.429 66.8652 393.228 77.4824 c 0
 418.026 88.1006 463.405 119.005 493.927 146.324 c 2
 549.403 196.125 l 1
 482.575 196.674 l 2
 421.307 197.202 416.079 199.929 420.142 228.532 c 0
 424.971 262.531 454.578 267.055 540.066 247.024 c 0
 584.666 236.574 585.995 237.418 581.628 275.586 c 0
 577.311 313.311 573.622 315.369 497.406 319.345 c 0
 428.53 322.938 417.578 327.284 417.578 351.02 c 0
 417.578 387.776 445.749 396.379 508.574 379.032 c 0
 571.925 361.54 582.2 366.85 573.571 411.988 c 0
 567.402 444.262 561.117 446.959 492.279 446.959 c 0
 438.09 446.959 417.578 452.134 417.578 466 c 0
 417.578 503.623 455.129 520.425 502.532 503.899 c 0
 565.562 481.928 570.276 483.82 570.276 531.547 c 2
 570.276 574.39 l 1
 434.973 569.629 l 1
 299.668 564.869 l 1
 299.668 599.656 l 2
 299.668 631.545 304.703 634.267 362.103 634.077 c 0
 396.439 633.966 457.346 628.964 497.406 623.092 c 2
 570.276 612.473 l 1
 570.276 653.851 l 2
 570.276 676.555 563.991 698.936 556.361 703.651 c 0
 542.992 711.914 536.139 780 548.671 780 c 0
198.786 590.867 m 0
 205.479 591.36 215.87 585.916 230.277 575.305 c 0
 260.171 553.287 262.454 543.662 255.36 473.324 c 2
 247.671 395.693 l 1
 290.88 402.102 l 2
 350.019 410.781 346.753 383.174 285.57 357.61 c 0
 258.75 346.404 237.682 332.184 238.699 326.119 c 0
 246.756 278.103 234.439 86.2705 223.319 86.2705 c 0
 215.148 86.2705 209.405 135.157 209.405 205.279 c 2
 209.405 324.288 l 1
 162.717 295.359 l 2
 121.642 269.975 113.699 268.969 98.6357 287.121 c 0
 72.165 319.016 91.4492 346.617 153.196 365.117 c 0
 215.533 383.794 219.255 396.757 196.223 516.167 c 0
 186.391 567.139 186.006 589.927 198.786 590.867 c 0
EndSplineSet
EndChar

StartChar: S
Encoding: 83 83 17
Width: 1000
VWidth: 0
Flags: H
LayerCount: 2
Fore
SplineSet
132.777 799.932 m 0
 145.536 800.814 156.786 793.186 173.372 774.966 c 0
 212.07 732.456 238.934 681.164 238.934 649.73 c 0
 238.934 614.21 223.001 620.162 150.233 683.627 c 0
 78.293 746.37 70.501 770.413 113.9 793.64 c 0
 120.874 797.371 126.978 799.53 132.777 799.932 c 0
559.864 774.544 m 0
 570.869 775.419 588.146 768.545 611.623 753.841 c 0
 665.736 719.948 666.454 718.496 657.293 637.536 c 2
 647.956 555.534 l 1
 781.716 560.608 l 2
 897.453 564.955 917.873 561.937 932.933 537.875 c 0
 946.811 515.702 944.971 506.076 923.596 490.176 c 0
 901.525 473.759 876.227 474.253 780.904 493.221 c 0
 717.204 505.896 661.036 512.188 656.075 507.226 c 0
 651.113 502.265 641.342 420.976 634.356 326.578 c 0
 621.521 153.136 617.791 134.485 599.242 153.035 c 0
 593.603 158.674 588.891 199.077 588.891 242.953 c 0
 588.891 286.827 584.456 366 578.944 418.729 c 2
 568.796 514.533 l 1
 421.232 509.256 l 1
 273.67 504.182 l 1
 273.67 542.544 l 2
 273.67 577.896 279.252 581.115 342.885 580.906 c 0
 380.951 580.782 448.472 575.237 492.883 568.728 c 2
 573.464 556.955 l 1
 573.464 610.337 l 2
 573.464 639.686 566.233 682.578 557.429 705.735 c 0
 540.598 750.006 541.524 773.085 559.864 774.544 c 0
89.3408 531.802 m 0
 101.441 531.655 120.442 523.4 147.798 507.242 c 0
 233.221 456.781 221.241 401.244 131.356 430.923 c 0
 89.5107 444.74 76.4795 458.125 72.6963 491.004 c 0
 69.5127 518.68 73.7822 531.991 89.3408 531.802 c 0
212.344 333.292 m 0
 224.203 333.416 214.276 277.655 191.438 215.567 c 0
 184.726 197.322 174.535 140.252 168.704 88.708 c 0
 157.378 -11.4023 139.776 -29.2734 115.524 34.5137 c 0
 107.274 56.2119 100.504 85.792 100.504 100.277 c 0
 100.504 114.763 89.5908 142.18 76.1475 161.373 c 0
 43.3555 208.19 57.957 248.458 99.6924 226.122 c 0
 126.087 211.996 134.695 217.877 165.253 271.385 c 0
 184.61 305.281 205.838 333.228 212.344 333.292 c 0
EndSplineSet
EndChar

StartChar: T
Encoding: 84 84 18
Width: 1000
VWidth: 0
Flags: H
LayerCount: 2
Fore
SplineSet
131.947 783.995 m 0
 140.834 783.787 150.423 777.361 165.019 764.152 c 0
 218.724 715.549 262.662 605.019 227.553 607.015 c 0
 221.288 607.37 187.291 633.142 151.79 664.338 c 0
 81.8604 725.787 74.8604 744.359 110.301 773.772 c 0
 118.576 780.641 125.036 784.156 131.947 783.995 c 0
560.066 765.788 m 0
 568.98 767.027 583.783 759.419 611.577 741.736 c 0
 665.309 707.554 665.779 706.445 656.272 626.489 c 2
 646.652 545.716 l 1
 753.281 556.139 l 2
 891.42 569.75 941.257 557.959 934.871 513.046 c 0
 930.688 483.625 921.494 479.684 861.714 481.578 c 0
 824.124 482.77 761.429 488.722 722.415 494.807 c 2
 651.463 505.83 l 1
 643.245 439.488 l 2
 638.672 402.976 632.5 330.487 629.615 278.342 c 2
 624.404 183.539 l 1
 708.986 187.146 l 2
 784.581 190.442 793.367 187.666 793.367 160.489 c 0
 793.367 126.033 780.307 124.531 546.638 133.432 c 0
 420.752 138.226 406.136 141.714 406.136 167.504 c 0
 406.136 204.288 451.175 218.759 503.745 198.771 c 0
 579.57 169.943 588.27 176.56 588.127 262.909 c 0
 588.051 306.764 583.701 379.517 578.306 424.456 c 2
 568.484 506.031 l 1
 438.004 498.815 l 2
 287.57 490.461 269.442 494.216 269.442 533.289 c 0
 269.442 569.857 321.601 598.135 364.246 584.6 c 0
 382.38 578.844 436.93 569.459 485.306 563.755 c 2
 573.095 553.332 l 1
 573.095 612.259 l 2
 573.095 644.688 565.855 685.041 556.859 701.851 c 0
 547.863 718.661 544.208 742.288 548.842 754.363 c 0
 551.431 761.109 554.718 765.045 560.066 765.788 c 0
92.8633 515.218 m 0
 93.9053 515.323 95.1475 515.218 96.2715 515.218 c 0
 130.705 515.218 208.712 456.53 208.712 430.637 c 0
 208.712 401.617 148.24 402.838 105.691 432.641 c 0
 67.7891 459.188 60.5732 511.95 92.8633 515.218 c 0
217.331 317.995 m 0
 222.48 317.913 223.33 309.498 217.731 291.338 c 0
 194.251 215.169 161.974 73.2148 164.217 56.2324 c 0
 171.936 -2.2002 148.851 -40.7686 127.738 -4.89844 c 0
 124.052 1.36621 116.065 30.4043 109.9 59.6406 c 0
 103.735 88.876 88.6631 132.316 76.4287 156.248 c 0
 50.1406 207.666 70.6611 244.204 108.297 212.97 c 0
 126.938 197.498 136.516 204.752 165.82 256.062 c 0
 188.17 295.193 208.748 318.131 217.331 317.995 c 0
EndSplineSet
EndChar

StartChar: U
Encoding: 85 85 19
Width: 1000
VWidth: 0
Flags: H
LayerCount: 2
Fore
SplineSet
550.155 780 m 0
 555.8 780 580.935 764.655 606.22 745.961 c 0
 648.316 714.838 651.92 705.637 647.467 636.035 c 2
 642.461 559.948 l 1
 772.209 565.354 l 2
 877.083 569.659 905.675 565.98 921.98 546.333 c 0
 954.927 506.635 915.345 471.976 848.296 481.859 c 0
 818.624 486.233 759.482 494.448 716.946 500.08 c 2
 639.657 510.292 l 1
 629.847 428.999 l 2
 624.473 384.249 619.907 304.952 619.835 252.797 c 0
 619.729 178.68 614.797 157.889 597.009 157.889 c 0
 578.086 157.889 574.183 187.614 574.183 334.09 c 2
 574.183 510.292 l 1
 428.016 504.686 l 2
 299.742 499.882 279.843 502.638 265.029 526.711 c 0
 242.257 563.717 292.789 603.345 346.723 590.783 c 0
 367.585 585.925 428.307 577.776 481.677 572.562 c 2
 578.788 563.152 l 1
 568.576 603.198 l 2
 550.515 675.162 539.643 780 550.155 780 c 0
216.374 698.507 m 0
 283.329 698.258 306.54 692.65 312.283 677.683 c 0
 324.994 644.559 286.717 628.733 217.375 638.238 c 0
 138.863 648.999 115.659 623.557 122.065 534.52 c 2
 126.671 469.044 l 1
 210.167 461.436 l 1
 293.662 453.827 l 1
 288.056 279.228 l 2
 285.008 183.263 275.637 96.2373 267.231 85.8066 c 0
 248.474 62.5264 221.638 61.5205 199.955 83.2031 c 0
 190.986 92.1719 157.856 108.255 126.471 119.044 c 2
 69.4053 138.667 l 1
 154.903 149.479 l 1
 240.401 160.092 l 1
 240.401 271.019 l 2
 240.401 400.693 226.975 418.754 134.681 412.58 c 2
 71.0078 408.175 l 1
 68.6045 552.34 l 1
 66.2021 696.505 l 1
 184.938 698.307 l 2
 196.368 698.475 206.809 698.545 216.374 698.507 c 0
410.138 273.392 m 1
 432.301 276.139 454.654 261.312 466.697 239.659 c 0
 473.485 224.896 475.168 203.116 463.567 191.034 c 1
 435.711 194.236 407.705 195.583 379.721 195.144 c 0
 369.16 194.252 358.615 195.806 348.082 194.787 c 0
 339.302 194.819 328.376 186.575 332.537 174.697 c 0
 336.354 164.946 338.033 154.311 340.74 144.077 c 0
 345.051 126.382 352.86 106.669 368.962 100.918 c 1
 395.034 95.1953 421.793 102.694 446.168 113.739 c 1
 454.809 116.071 462.745 126.051 471.924 122.199 c 1
 483.222 114.857 479.565 91.2246 466.663 89.1279 c 1
 437.118 73.2656 404.044 66.5283 371.744 70.3545 c 0
 352.498 71.5654 333.219 81.0107 320.914 99.0684 c 0
 307.134 120.969 298.074 147.449 296.176 174.77 c 0
 294.702 198.997 299.611 225.906 315.121 242.931 c 0
 340.725 269.981 377.021 276.341 410.138 273.392 c 1
402.778 247.673 m 0
 395.002 247.019 387.152 247.356 379.432 245.884 c 0
 372.087 243.559 363.306 242.667 358.298 235.096 c 0
 351.951 227.332 352.765 213.1 362.079 216.912 c 1
 379.043 216.861 395.525 217.518 409.537 216.144 c 1
 424.511 217.287 431.198 216.812 429.056 229.465 c 1
 425.342 241.411 413.494 250.255 402.778 247.673 c 0
EndSplineSet
EndChar

StartChar: V
Encoding: 86 86 20
Width: 1000
VWidth: 0
Flags: H
LayerCount: 2
Fore
SplineSet
447.779 779.951 m 0
 458.245 779.119 478.434 767.756 513.227 747.228 c 0
 573.459 711.689 574.151 709.783 563.103 626.488 c 2
 551.818 541.857 l 1
 698.963 546.822 l 2
 859.666 552.266 905.63 534.32 870.48 479.344 c 0
 850.458 448.026 826.128 446.59 646.379 467.608 c 2
 539.405 480.246 l 1
 536.021 358.152 l 2
 534.191 291.008 532.255 211.109 531.732 180.541 c 2
 530.83 124.798 l 1
 620.651 130.666 l 2
 692.65 135.354 712.617 130.868 721.53 107.646 c 0
 742.379 53.3174 676.262 36.6475 556.558 66.1211 c 0
 523.638 74.2256 447.819 76.1582 388.199 70.4082 c 0
 281.205 60.0898 280.021 60.4131 285.739 100.876 c 0
 290.432 134.068 301.298 141.774 342.837 140.821 c 0
 371.054 140.174 410.229 136.301 429.95 132.245 c 0
 473.309 123.329 471.024 113.334 471.024 314.145 c 2
 471.024 477.764 l 1
 307.18 473.476 l 2
 139.822 469.014 102.438 482.249 123.926 538.246 c 0
 137.213 572.871 198.01 582.09 283.482 562.395 c 0
 325.5 552.712 385.756 544.569 417.312 544.34 c 0
 473.931 543.928 474.411 544.697 465.156 607.982 c 0
 459.998 643.253 450.696 697.025 444.394 727.593 c 0
 436.781 764.511 434.322 781.021 447.779 779.951 c 0
EndSplineSet
EndChar

StartChar: W
Encoding: 87 87 21
Width: 1000
VWidth: 0
Flags: H
LayerCount: 2
Fore
SplineSet
437.565 759.997 m 0
 446.508 760.2 472.891 748.824 501.138 732.158 c 0
 556.989 699.205 559.449 694.484 549.96 635.138 c 2
 539.987 572.812 l 1
 671.91 583.822 l 2
 786.422 593.361 807.492 591.175 831.673 566.994 c 0
 858.33 540.337 857.999 537.741 823.57 509.862 c 0
 803.777 493.835 778.784 484.156 768.101 488.256 c 0
 732.512 501.913 555.691 533.692 549.752 527.521 c 0
 546.533 524.179 541.544 503.877 538.533 482.231 c 0
 533.198 443.884 535.644 442.732 635.346 440.889 c 0
 788.232 438.062 782.1 440.364 770.178 391.651 c 0
 764.351 367.841 750.866 270.414 740.262 175.172 c 0
 721.245 4.38281 720.422 2.03711 682.091 7.30762 c 0
 599.351 18.6855 403.908 17.1816 340.129 4.60645 c 0
 303.331 -2.64844 272.842 -6.21289 272.401 -3.28809 c 0
 271.961 -0.362305 268.781 87.0615 265.338 190.962 c 0
 261.895 294.861 256.938 397.429 254.327 419.074 c 0
 249.146 462.028 246.909 461.684 387.496 441.512 c 2
 462.288 430.916 l 1
 462.288 481.608 l 1
 462.288 532.3 l 1
 308.758 526.898 l 2
 159.591 521.609 155.141 522.531 150.242 557.022 c 0
 143.041 607.74 178.14 615.33 324.547 594.626 c 0
 394.459 584.739 455.317 580.385 459.795 584.861 c 0
 464.271 589.338 458.932 628.676 447.745 672.325 c 0
 436.558 715.975 430.695 754.997 434.864 759.166 c 0
 435.386 759.688 436.287 759.971 437.565 759.997 c 0
516.927 387.704 m 2
 427.286 387.704 350.623 382.422 346.569 375.861 c 0
 342.515 369.302 334.232 337.956 328.287 306.265 c 0
 318.576 254.501 321.288 247.873 354.464 240.614 c 0
 396.026 231.521 683.395 241.503 694.348 252.456 c 0
 698.24 256.349 696.559 288.499 690.608 323.716 c 2
 679.806 387.704 l 1
 516.927 387.704 l 2
320.6 183.066 m 1
 320.6 120.118 l 1
 320.6 57.1689 l 1
 481.816 57.377 l 2
 570.564 57.502 651.594 62.7705 661.73 69.2188 c 0
 671.867 75.666 684.742 99.4414 690.4 121.987 c 0
 703.701 174.98 676.816 182.575 473.922 182.859 c 2
 320.6 183.066 l 1
EndSplineSet
EndChar

StartChar: X
Encoding: 88 88 22
Width: 1000
VWidth: 0
Flags: H
LayerCount: 2
Fore
SplineSet
489.384 140.589 m 0
 501.084 93.334 496.01 112.373 480.209 93.334 c 0
 468.315 79.0039 442.939 79.2949 434.263 93.334 c 0
 421.521 113.95 420.543 126.277 442.778 137.604 c 1
 455.277 137.832 486.889 150.665 489.384 140.589 c 0
454.568 512.339 m 0
 464.761 518.404 475.286 518.93 484.313 513.823 c 0
 496.37 507.003 506.593 493.985 528.104 458.062 c 0
 548.846 423.425 567.226 396.961 579.425 384.174 c 0
 587.113 376.113 590.351 371.127 592.103 364.646 c 0
 595.529 351.961 590.171 340.656 576.388 331.496 c 0
 570.239 327.41 555.432 322.203 544.456 320.268 c 0
 514.515 314.987 474.978 298.425 464.084 286.599 c 0
 459.461 281.579 458.352 274.861 460.287 263.602 c 0
 474.625 189.512 453.437 62.3613 413.873 263.814 c 0
 408.752 285.714 406.078 305.154 407.111 312.968 c 0
 407.549 316.268 408.015 317.038 410.913 319.247 c 0
 412.989 320.829 418.376 323.504 425.416 326.449 c 0
 440.528 332.77 459.25 338.013 498.848 347.014 c 0
 516.051 350.925 530.47 354.241 530.89 354.385 c 0
 531.859 354.714 516.958 398.662 508.309 420.982 c 0
 497.283 449.437 489.518 461.877 479.318 467.424 c 0
 470.804 472.055 463.366 471.779 443.81 466.112 c 0
 422.511 459.94 414.594 460.28 413.998 467.392 c 0
 413.78 469.987 417.395 477.235 421.422 482.281 c 0
 429.42 492.299 445.695 507.058 454.568 512.339 c 0
EndSplineSet
EndChar

StartChar: Y
Encoding: 89 89 23
Width: 1000
VWidth: 0
Flags: H
LayerCount: 2
Fore
SplineSet
97.7236 779.999 m 0
 135.521 779.189 213.9 674.755 213.9 625.168 c 0
 213.9 579.908 198.264 576.81 162.715 615.186 c 0
 148.365 630.676 117.378 659.465 93.9004 679.114 c 0
 58.2148 708.983 54.2217 720.191 68.8389 747.504 c 0
 78.4551 765.473 91.3965 780.135 97.7236 779.999 c 0
548.624 758.425 m 1
 607.88 723.593 l 2
 665.331 689.695 666.75 686.043 661.614 606.354 c 2
 656.517 524.16 l 1
 785.224 529.258 l 2
 878.672 532.835 922.656 527.694 945.577 510.78 c 0
 973.316 490.31 974.188 484.044 954.072 459.807 c 0
 930.448 431.341 936.007 431.316 716.835 462.355 c 0
 649.207 471.933 648.446 471.569 648.446 423.063 c 0
 648.446 396.082 643.748 361.905 638.039 347.028 c 0
 628.658 322.583 639.309 321.062 748.693 331.312 c 0
 822.35 338.214 873.444 336.558 879.312 327.064 c 0
 887.7 313.491 856.035 125.977 831.737 45.4375 c 0
 823.128 16.9014 776.532 7.18066 754.216 29.2959 c 0
 747.517 35.9346 661.211 41.4023 562.429 41.4023 c 2
 382.748 41.4023 l 1
 372.342 129.968 l 2
 366.637 178.651 356.658 249.784 350.041 288.197 c 2
 337.935 358.073 l 1
 430.323 346.604 l 2
 584.766 327.308 575.319 323.94 580.906 402.037 c 2
 586.004 472.763 l 1
 436.271 464.267 l 2
 265.933 454.726 245.971 458.554 245.971 500.798 c 0
 245.971 547.12 299.999 568.502 370.854 550.071 c 0
 459.017 527.14 576.396 521.441 573.686 540.302 c 0
 572.412 549.153 566.143 601.775 559.88 657.328 c 2
 548.624 758.425 l 1
528.871 280.976 m 0
 481.287 281.023 451.007 277.683 443.066 271.206 c 0
 432.002 262.181 423.103 219.979 423.103 177.543 c 0
 423.103 130.876 430.899 97.2852 443.066 92.375 c 0
 454.131 87.9102 537.285 83.7285 627.845 83.0303 c 0
 787.954 81.7939 792.939 82.8145 802.215 119.773 c 0
 807.462 140.677 809.328 182.17 806.463 212.162 c 2
 801.153 266.746 l 1
 632.305 277.152 l 2
 592.287 279.619 557.422 280.948 528.871 280.976 c 0
61.6172 490.514 m 0
 95.4668 490.514 163.441 444.024 182.892 407.683 c 0
 196.728 381.829 192.711 377.736 153.582 377.736 c 0
 128.686 377.736 92.334 389.019 72.6621 402.798 c 0
 31.8594 431.377 24.4248 490.514 61.6172 490.514 c 0
189.688 277.064 m 0
 190.545 277.288 191.123 277.115 191.6 276.64 c 0
 196.15 272.088 188.487 230.138 174.608 183.4 c 0
 160.729 136.664 149.546 71.415 149.546 38.3398 c 0
 149.546 -52.5586 127.482 -93.791 95.8125 -62.1201 c 0
 89.9111 -56.2188 84.9619 -36.1719 84.7676 -17.7305 c 0
 84.5732 0.709961 69.8174 47.8359 52.0605 86.9766 c 0
 16.3281 165.738 30.373 207.22 79.0332 167.047 c 0
 95.0791 153.8 108.741 151.052 111.953 160.463 c 0
 123.85 195.314 176.833 273.703 189.688 277.064 c 0
EndSplineSet
EndChar

StartChar: Z
Encoding: 90 90 24
Width: 1000
VWidth: 0
Flags: H
LayerCount: 2
Fore
SplineSet
450.467 -159.549 m 0
 440.516 -157.933 434.605 -152.302 428.225 -138.356 c 0
 422.208 -125.208 425.981 -114.586 439.244 -107.342 c 0
 442.904 -105.342 475.164 -98.6152 481.092 -98.6152 c 0
 486.814 -98.6152 488.525 -100.109 490.257 -106.62 c 0
 493.312 -118.103 495.926 -132.754 495.338 -135.095 c 0
 494.996 -136.459 492.661 -138.951 490.029 -140.763 c 0
 487.445 -142.54 483.027 -146.373 480.212 -149.28 c 0
 472.022 -157.735 461.556 -161.349 450.467 -159.549 c 0
446.797 -85.0059 m 0
 437.945 -77.5576 426.705 -42.0293 414.402 17.3848 c 0
 408.24 47.1475 407.427 52.4727 407.329 63.6865 c 0
 407.229 75.1006 407.09 74.9043 419.582 80.9062 c 0
 434.52 88.084 457.69 94.6123 516.994 108.352 c 0
 524.557 110.104 530.744 111.926 530.744 112.402 c 0
 530.744 114.097 517.811 152.17 511.355 169.481 c 0
 497.4 206.903 488.855 220.68 476.364 225.899 c 0
 470.319 228.425 461.418 227.729 444.244 223.385 c 0
 426.079 218.791 418.089 218.241 415.241 221.388 c 0
 413.679 223.114 413.586 223.914 414.565 227.186 c 0
 416.379 233.236 421.492 240.214 431.204 249.894 c 0
 441.738 260.392 450.04 266.974 457.744 270.935 c 0
 462.304 273.279 464.526 273.771 470.744 273.806 c 0
 480.222 273.858 486.182 270.984 495.111 262.055 c 0
 503.036 254.13 510.652 243.148 530.25 211.385 c 0
 553.336 173.969 564.965 157.488 582.729 137.013 c 0
 602.025 114.771 592.713 92.2979 559.744 81.5449 c 0
 556.169 80.3789 546.953 78.0186 539.265 76.3008 c 0
 502.884 68.1699 467.492 51.6533 461.569 40.042 c 0
 459.019 35.0439 458.882 26.9219 461.134 14.2158 c 0
 467.527 -21.8633 464.314 -75.2324 455.154 -85.1172 c 0
 452.225 -88.2783 450.661 -88.2578 446.797 -85.0059 c 0
451.26 739.952 m 0
 463.196 740.83 483.735 729.706 512.069 706.525 c 0
 544.773 679.769 551.612 663.947 547.763 624.752 c 2
 543.041 576.217 l 1
 665.417 581.316 l 2
 764.332 585.376 791.299 581.905 806.679 563.375 c 0
 822.488 544.326 822.359 536.601 806.49 517.484 c 0
 791.994 500.019 772.679 496.539 726.039 503.132 c 0
 515.343 532.915 535.865 534.686 535.865 487.835 c 0
 535.865 447.008 537.955 445.604 603.852 446.477 c 0
 662.585 447.253 671.839 443.634 671.839 418.903 c 0
 671.839 393.624 662.986 390.483 595.92 392.275 c 0
 521.85 394.255 520.074 393.272 524.346 356.394 c 0
 529.664 313.064 633.096 269.676 474.3 297.283 c 1
 481.261 384.907 470.069 397.375 384.406 397.375 c 0
 310.221 397.375 305.35 399.407 309.621 429.479 c 0
 313.229 454.885 323.148 461.543 357.022 461.018 c 0
 380.635 460.651 414.477 455.565 432.186 449.498 c 0
 461.137 439.578 464.29 442.968 464.29 483.869 c 2
 464.29 529.382 l 1
 333.605 524.094 l 2
 219.521 519.582 200.776 522.284 186.867 544.868 c 0
 165.194 580.057 213.326 617.463 264.107 604.923 c 0
 283.784 600.063 337.729 592.419 384.028 587.926 c 2
 468.256 579.616 l 1
 459.947 620.976 l 2
 455.445 643.641 447.524 679.781 442.194 701.426 c 0
 436.084 726.242 439.323 739.073 451.26 739.952 c 0
EndSplineSet
EndChar

StartChar: O
Encoding: 79 79 50
Width: 1000
VWidth: 0
Flags: HO
LayerCount: 2
Fore
SplineSet
490.374 772.248 m 0
 505.004 772.326 528.181 760.256 555.851 743.593 c 1
 573.998 736.791 588.809 719.037 569.983 678.281 c 1
 561.008 630.871 l 1
 639.146 635.399 717.151 644.668 795.48 643.757 c 1
 826.367 646.921 882.824 611.217 848.632 581.003 c 1
 822.874 549.948 782.125 562.293 748.627 569.757 c 1
 687.933 581.079 625.646 592.481 563.821 587.101 c 1
 556.866 563.508 550.201 520.843 590.012 536.511 c 1
 628.61 538.779 672.353 545.955 706.527 524.15 c 1
 733.19 487.172 675.089 468.964 645.54 478.281 c 1
 614.793 476.902 571.069 493.664 549.654 465.134 c 1
 542.77 444.951 542.447 407.507 573.734 425.265 c 1
 599.457 429.375 687.382 432.046 693.533 428.281 c 0
 730.259 409.097 691.896 377.577 656.335 380.592 c 0
 645.018 381.449 567.682 399.736 540.946 369.396 c 1
 539.887 358.675 539.916 341.586 540.896 321.961 c 0
 541.142 317.056 650.82 341.882 709.516 319.328 c 0
 736.619 308.913 714.463 284.945 702.438 277.562 c 0
 645.564 244.918 606.482 297.926 548.931 264.08 c 1
 549.304 249.819 543.977 213.928 561.735 199.64 c 1
 601.969 202.55 756.434 216.254 793.23 193.448 c 1
 832.87 158.9 719.224 140.566 691.334 143.521 c 1
 666.323 145.093 548.156 160.968 562.26 115.765 c 1
 564.979 87.8096 546.082 53.0605 572.308 30.5186 c 0
 594.912 10.1396 641.209 5.86426 665.117 19.8701 c 0
 693.211 36.3271 718.122 81.6143 720.025 110.835 c 1
 730.31 81.5996 730.865 81.7783 743.499 61.1172 c 1
 735.843 36.2969 709.078 9.08984 679.986 -9.20703 c 1
 677.799 -9.1875 685.517 -68.8672 684.035 -100.629 c 1
 690.453 -101.385 712.279 -99.9854 712.351 -101.687 c 0
 713.001 -117.088 695.354 -128.846 686.513 -140.989 c 0
 679.313 -150.879 353.273 -140.74 351.673 -140.757 c 0
 345.271 -140.826 325.117 -142.097 322.2 -138.495 c 0
 311.07 -124.753 303.438 -19.9795 302.115 -19.9902 c 0
 256.783 -20.375 233.12 -29.2549 335.965 -2.85547 c 1
 388.752 18.5908 432.35 47.0635 434.117 95.4385 c 1
 439.473 127.518 399.1 147.699 360.531 146.703 c 1
 330.307 151.217 247.362 141.439 239.492 181.68 c 1
 249.779 224.894 331.383 214.409 364.247 209.972 c 0
 378.002 207.335 457.824 181.213 472.925 193.899 c 1
 494.686 202.102 490.137 242.999 486.51 263.962 c 1
 466.717 288.796 374.164 268.642 337.688 279.988 c 0
 310.926 288.313 304.926 318.285 319.902 329.883 c 0
 353.773 356.11 480.126 308.188 488.264 334.876 c 1
 486.732 363.865 480.184 382.56 455.845 381.593 c 0
 420.535 379.166 386.364 387.406 351.117 388.871 c 1
 300.301 383.82 313.029 459.577 359.322 448.806 c 1
 402.104 448.469 442.889 433.894 483.106 421.265 c 1
 506.816 436.727 476.107 494.797 441.477 487.855 c 1
 402.411 493.902 360.15 483.434 323.118 499.429 c 1
 305.439 537.285 362.422 556.863 393.283 547.462 c 1
 422.643 548.327 459.98 513.43 483.844 533.462 c 1
 486.818 551.732 485.022 570.395 485.519 588.839 c 1
 386.006 586.492 286.554 582.693 187.177 577.068 c 1
 172.848 592.697 183.152 623.485 192.268 644.445 c 1
 222.658 660.342 260.367 651.01 293.746 652.216 c 1
 358.034 649.705 421.761 640.996 485.519 633.101 c 1
 483.859 660.025 490.134 688.81 479.423 714.15 c 1
 468.176 756.48 473.794 772.16 490.374 772.248 c 0
526.726 108.781 m 1
 528.71 127.85 499.834 166.527 492.545 126.027 c 1
 499.862 61.5557 414.007 -27.1133 346.206 -20.9766 c 0
 345.128 -21.0215 342.679 -100.205 349.897 -110.102 c 0
 357.37 -120.346 566.171 -99.8398 653.122 -99.4814 c 1
 654.054 -77.4434 653.385 -13.6982 648.5 -14.2354 c 0
 637.006 -15.5 599.37 -13.0684 587.814 -13.7764 c 0
 576.258 -14.4844 564.99 -14.4238 554.591 -12.6621 c 0
 544.19 -10.8994 534.65 -7.43066 526.625 -1.28516 c 1
 528.787 34.957 537.08 72.2627 526.726 108.781 c 1
EndSplineSet
EndChar

